<?xml version="1.0" encoding="UTF-8"?>
<svg width="97px" height="48px" viewBox="0 0 97 48" version="1.1" xmlns="http://www.w3.org/2000/svg" xmlns:xlink="http://www.w3.org/1999/xlink">
    <!-- Generator: Sketch 43.1 (39012) - http://www.bohemiancoding.com/sketch -->
    <title>Blazefield Ponies</title>
    <desc>Created with Sketch.</desc>
    <defs></defs>
    <g id="Page-1" stroke="none" stroke-width="1" fill="none" fill-rule="evenodd">
        <path d="M11.624,13.536 C11.624,14.1920033 11.4760015,14.7959972 11.18,15.348 C10.8839985,15.9000028 10.4640027,16.371998 9.92,16.764 C9.37599728,17.156002 8.7240038,17.4599989 7.964,17.676 C7.2039962,17.8920011 6.36000464,18 5.432,18 L0.92,18 L0.92,2.016 L5.864,2.016 C6.63200384,2.016 7.3359968,2.10799908 7.976,2.292 C8.6160032,2.47600092 9.16399772,2.73999828 9.62,3.084 C10.0760023,3.42800172 10.4279988,3.8399976 10.676,4.32 C10.9240012,4.8000024 11.048,5.32799712 11.048,5.904 C11.048,6.83200464 10.7400031,7.61199684 10.124,8.244 C9.50799692,8.87600316 8.7200048,9.3519984 7.76,9.672 C8.94400592,9.89600112 9.88399652,10.3319968 10.58,10.98 C11.2760035,11.6280032 11.624,12.4799947 11.624,13.536 Z M9.512,13.464 C9.512,12.9839976 9.40000112,12.5640018 9.176,12.204 C8.95199888,11.8439982 8.64800192,11.5480012 8.264,11.316 C7.87999808,11.0839988 7.43200256,10.9120006 6.92,10.8 C6.40799744,10.6879994 5.86400288,10.632 5.288,10.632 L3.032,10.632 L3.032,16.272 L5.576,16.272 C6.776006,16.272 7.73199644,16.0360024 8.444,15.564 C9.15600356,15.0919976 9.512,14.3920046 9.512,13.464 Z M5.072,8.904 C5.61600272,8.904 6.12399764,8.84000064 6.596,8.712 C7.06800236,8.58399936 7.47599828,8.4000012 7.82,8.16 C8.16400172,7.9199988 8.43199904,7.63200168 8.624,7.296 C8.81600096,6.95999832 8.912,6.57600216 8.912,6.144 C8.912,5.343996 8.612003,4.744002 8.012,4.344 C7.411997,3.943998 6.6320048,3.744 5.672,3.744 L3.032,3.744 L3.032,8.904 L5.072,8.904 Z M16.496,15.024 C16.496,15.4880023 16.5879991,15.8439988 16.772,16.092 C16.9560009,16.3400012 17.2719978,16.464 17.72,16.464 C18.0720018,16.464 18.4319982,16.4160005 18.8,16.32 L18.896,17.928 C18.3679974,18.1040009 17.7840032,18.192 17.144,18.192 C16.135995,18.192 15.4160022,17.896003 14.984,17.304 C14.5519978,16.711997 14.336,15.9840043 14.336,15.12 L14.336,1.056 L16.496,1.056 L16.496,15.024 Z M27.56,16.56 C27.3839991,16.768001 27.1680013,16.971999 26.912,17.172 C26.6559987,17.372001 26.3640016,17.5519992 26.036,17.712 C25.7079984,17.8720008 25.348002,17.9999995 24.956,18.096 C24.563998,18.1920005 24.1520022,18.24 23.72,18.24 C23.2399976,18.24 22.800002,18.1640008 22.4,18.012 C21.999998,17.8599992 21.6560014,17.6480014 21.368,17.376 C21.0799986,17.1039986 20.8520008,16.768002 20.684,16.368 C20.5159992,15.967998 20.432,15.5280024 20.432,15.048 C20.432,13.9919947 20.8039963,13.1920027 21.548,12.648 C22.2920037,12.1039973 23.2879938,11.7920004 24.536,11.712 C25.0480026,11.6799998 25.5559975,11.6560001 26.06,11.64 C26.5640025,11.6239999 27.0479977,11.616 27.512,11.616 L27.512,11.112 C27.512,10.1359951 27.3040021,9.37200276 26.888,8.82 C26.4719979,8.26799724 25.7840048,7.992 24.824,7.992 C24.2639972,7.992 23.7320025,8.06399928 23.228,8.208 C22.7239975,8.35200072 22.2400023,8.55199872 21.776,8.808 L21.272,7.224 C21.880003,6.85599816 22.4999968,6.60000072 23.132,6.456 C23.7640032,6.31199928 24.4559962,6.24 25.208,6.24 C26.5680068,6.24 27.651996,6.65599584 28.46,7.488 C29.268004,8.32000416 29.672,9.51199224 29.672,11.064 L29.672,18 L27.56,18 L27.56,16.56 Z M24.344,16.656 C24.9680031,16.656 25.5519973,16.5160014 26.096,16.236 C26.6400027,15.9559986 27.111998,15.6000022 27.512,15.168 L27.512,13.032 C27.0319976,13.0640002 26.5840021,13.0959998 26.168,13.128 C25.7519979,13.1600002 25.3360021,13.1999998 24.92,13.248 C24.5839983,13.2800002 24.2680015,13.3359996 23.972,13.416 C23.6759985,13.4960004 23.4200011,13.6039993 23.204,13.74 C22.9879989,13.8760007 22.8200006,14.0519989 22.7,14.268 C22.5799994,14.4840011 22.52,14.7439985 22.52,15.048 C22.52,15.5920027 22.6799984,15.9959987 23,16.26 C23.3200016,16.5240013 23.7679971,16.656 24.344,16.656 Z M32.624,18 L32.624,16.32 L38.576,8.16 L32.84,8.16 L32.84,6.48 L40.928,6.48 L40.928,8.16 L34.976,16.32 L41.192,16.32 L41.192,18 L32.624,18 Z M48.32,6.24 C49.0560037,6.24 49.6999972,6.3599988 50.252,6.6 C50.8040028,6.8400012 51.2679981,7.16799792 51.644,7.584 C52.0200019,8.00000208 52.2999991,8.49199716 52.484,9.06 C52.6680009,9.62800284 52.76,10.2399967 52.76,10.896 C52.76,11.5520033 52.6800008,12.1999968 52.52,12.84 L45.248,12.84 C45.2640001,13.4000028 45.3439993,13.9039978 45.488,14.352 C45.6320007,14.8000022 45.8519985,15.1879984 46.148,15.516 C46.4440015,15.8440016 46.8279976,16.0959991 47.3,16.272 C47.7720024,16.4480009 48.3439966,16.536 49.016,16.536 C49.6400031,16.536 50.2279972,16.4720006 50.78,16.344 C51.3320028,16.2159994 51.8399977,16.056001 52.304,15.864 L52.592,17.472 C52.0799974,17.7120012 51.4840034,17.8999993 50.804,18.036 C50.1239966,18.1720007 49.4240036,18.24 48.704,18.24 C47.7439952,18.24 46.9080036,18.0840016 46.196,17.772 C45.4839964,17.4599984 44.8960023,17.0360027 44.432,16.5 C43.9679977,15.9639973 43.6200012,15.3360036 43.388,14.616 C43.1559988,13.8959964 43.04,13.1200042 43.04,12.288 C43.04,11.4559958 43.1599988,10.6720037 43.4,9.936 C43.6400012,9.19999632 43.9879977,8.55600276 44.444,8.004 C44.9000023,7.45199724 45.4559967,7.02000156 46.112,6.708 C46.7680033,6.39599844 47.5039959,6.24 48.32,6.24 Z M48.248,7.848 C47.7839977,7.848 47.3760018,7.93599912 47.024,8.112 C46.6719982,8.28800088 46.3680013,8.52799848 46.112,8.832 C45.8559987,9.13600152 45.6560007,9.49199796 45.512,9.9 C45.3679993,10.308002 45.2800002,10.7359978 45.248,11.184 L50.672,11.184 C50.7200002,10.7359978 50.7120003,10.308002 50.648,9.9 C50.5839997,9.49199796 50.456001,9.13600152 50.264,8.832 C50.071999,8.52799848 49.8080017,8.28800088 49.472,8.112 C49.1359983,7.93599912 48.7280024,7.848 48.248,7.848 Z M56.36,18 L56.36,8.232 L54.416,8.232 L54.416,6.48 L56.36,6.48 L56.36,5.952 C56.36,4.20799128 56.7879957,2.9160042 57.644,2.076 C58.5000043,1.2359958 59.727992,0.816 61.328,0.816 C61.9040029,0.816 62.4519974,0.86399952 62.972,0.96 C63.4920026,1.05600048 63.9599979,1.19199912 64.376,1.368 L64.112,3.024 C63.7279981,2.87999928 63.3040023,2.7680004 62.84,2.688 C62.3759977,2.6079996 61.9040024,2.568 61.424,2.568 C60.3839948,2.568 59.6400022,2.83599732 59.192,3.372 C58.7439978,3.90800268 58.52,4.74399432 58.52,5.88 L58.52,6.48 L65.384,6.48 L65.384,18 L63.224,18 L63.224,8.232 L58.52,8.232 L58.52,18 L56.36,18 Z M73.424,6.24 C74.1600037,6.24 74.8039972,6.3599988 75.356,6.6 C75.9080028,6.8400012 76.3719981,7.16799792 76.748,7.584 C77.1240019,8.00000208 77.4039991,8.49199716 77.588,9.06 C77.7720009,9.62800284 77.864,10.2399967 77.864,10.896 C77.864,11.5520033 77.7840008,12.1999968 77.624,12.84 L70.352,12.84 C70.3680001,13.4000028 70.4479993,13.9039978 70.592,14.352 C70.7360007,14.8000022 70.9559985,15.1879984 71.252,15.516 C71.5480015,15.8440016 71.9319976,16.0959991 72.404,16.272 C72.8760024,16.4480009 73.4479966,16.536 74.12,16.536 C74.7440031,16.536 75.3319972,16.4720006 75.884,16.344 C76.4360028,16.2159994 76.9439977,16.056001 77.408,15.864 L77.696,17.472 C77.1839974,17.7120012 76.5880034,17.8999993 75.908,18.036 C75.2279966,18.1720007 74.5280036,18.24 73.808,18.24 C72.8479952,18.24 72.0120036,18.0840016 71.3,17.772 C70.5879964,17.4599984 70.0000023,17.0360027 69.536,16.5 C69.0719977,15.9639973 68.7240012,15.3360036 68.492,14.616 C68.2599988,13.8959964 68.144,13.1200042 68.144,12.288 C68.144,11.4559958 68.2639988,10.6720037 68.504,9.936 C68.7440012,9.19999632 69.0919977,8.55600276 69.548,8.004 C70.0040023,7.45199724 70.5599967,7.02000156 71.216,6.708 C71.8720033,6.39599844 72.6079959,6.24 73.424,6.24 Z M73.352,7.848 C72.8879977,7.848 72.4800018,7.93599912 72.128,8.112 C71.7759982,8.28800088 71.4720013,8.52799848 71.216,8.832 C70.9599987,9.13600152 70.7600007,9.49199796 70.616,9.9 C70.4719993,10.308002 70.3840002,10.7359978 70.352,11.184 L75.776,11.184 C75.8240002,10.7359978 75.8160003,10.308002 75.752,9.9 C75.6879997,9.49199796 75.560001,9.13600152 75.368,8.832 C75.175999,8.52799848 74.9120017,8.28800088 74.576,8.112 C74.2399983,7.93599912 73.8320024,7.848 73.352,7.848 Z M82.64,15.024 C82.64,15.4880023 82.7319991,15.8439988 82.916,16.092 C83.1000009,16.3400012 83.4159978,16.464 83.864,16.464 C84.2160018,16.464 84.5759982,16.4160005 84.944,16.32 L85.04,17.928 C84.5119974,18.1040009 83.9280032,18.192 83.288,18.192 C82.279995,18.192 81.5600022,17.896003 81.128,17.304 C80.6959978,16.711997 80.48,15.9840043 80.48,15.12 L80.48,1.056 L82.64,1.056 L82.64,15.024 Z M96.56,18 L94.52,18 L94.52,16.416 C94.0879978,16.9280026 93.568003,17.3599982 92.96,17.712 C92.351997,18.0640018 91.6160043,18.24 90.752,18.24 C90.0799966,18.24 89.4720027,18.0960014 88.928,17.808 C88.3839973,17.5199986 87.912002,17.1120026 87.512,16.584 C87.111998,16.0559974 86.8040011,15.4320036 86.588,14.712 C86.3719989,13.9919964 86.264,13.2000043 86.264,12.336 C86.264,11.3759952 86.4119985,10.5160038 86.708,9.756 C87.0040015,8.9959962 87.4159974,8.3560026 87.944,7.836 C88.4720026,7.3159974 89.0919964,6.92000136 89.804,6.648 C90.5160036,6.37599864 91.2879958,6.24 92.12,6.24 C92.5840023,6.24 92.9959982,6.26799972 93.356,6.324 C93.7160018,6.38000028 94.0639983,6.45599952 94.4,6.552 L94.4,1.056 L96.56,1.056 L96.56,18 Z M91.352,16.512 C92.0400034,16.512 92.6399974,16.3440017 93.152,16.008 C93.6640026,15.6719983 94.0799984,15.3120019 94.4,14.928 L94.4,8.28 C94.1279986,8.16799944 93.8160018,8.08800024 93.464,8.04 C93.1119982,7.99199976 92.7440019,7.968 92.36,7.968 C91.159994,7.968 90.2040036,8.34399624 89.492,9.096 C88.7799964,9.84800376 88.424,10.927993 88.424,12.336 C88.424,13.6000063 88.6599976,14.6119962 89.132,15.372 C89.6040024,16.1320038 90.343995,16.512 91.352,16.512 Z M10.904,35.696 C10.904,36.4640038 10.7360017,37.1559969 10.4,37.772 C10.0639983,38.3880031 9.596003,38.9119978 8.996,39.344 C8.395997,39.7760022 7.68800408,40.1079988 6.872,40.34 C6.05599592,40.5720012 5.17600472,40.688 4.232,40.688 L3.128,40.688 L3.128,47 L0.92,47 L0.92,31.016 L4.784,31.016 C5.64800432,31.016 6.45199628,31.111999 7.196,31.304 C7.94000372,31.496001 8.58799724,31.787998 9.14,32.18 C9.69200276,32.572002 10.1239984,33.0599971 10.436,33.644 C10.7480016,34.2280029 10.904,34.9119961 10.904,35.696 Z M8.696,35.672 C8.696,35.1439974 8.59200104,34.7000018 8.384,34.34 C8.17599896,33.9799982 7.8920018,33.6840012 7.532,33.452 C7.1719982,33.2199988 6.74800244,33.0520005 6.26,32.948 C5.77199756,32.8439995 5.25600272,32.792 4.712,32.792 L3.128,32.792 L3.128,38.912 L4.304,38.912 C4.9440032,38.912 5.53199732,38.8400007 6.068,38.696 C6.60400268,38.5519993 7.06799804,38.3400014 7.46,38.06 C7.85200196,37.7799986 8.15599892,37.440002 8.372,37.04 C8.58800108,36.639998 8.696,36.1840026 8.696,35.672 Z M23.336,41.24 C23.336,42.0560041 23.2120012,42.8239964 22.964,43.544 C22.7159988,44.2640036 22.3520024,44.8999972 21.872,45.452 C21.3919976,46.0040028 20.8040035,46.4399984 20.108,46.76 C19.4119965,47.0800016 18.6240044,47.24 17.744,47.24 C16.8479955,47.24 16.0560034,47.0800016 15.368,46.76 C14.6799966,46.4399984 14.0960024,46.0040028 13.616,45.452 C13.1359976,44.8999972 12.7720012,44.2640036 12.524,43.544 C12.2759988,42.8239964 12.152,42.0560041 12.152,41.24 C12.152,40.4239959 12.2759988,39.6560036 12.524,38.936 C12.7720012,38.2159964 13.1359976,37.5800028 13.616,37.028 C14.0960024,36.4759972 14.6799966,36.0400016 15.368,35.72 C16.0560034,35.3999984 16.8479955,35.24 17.744,35.24 C18.6240044,35.24 19.4119965,35.3999984 20.108,35.72 C20.8040035,36.0400016 21.3919976,36.4759972 21.872,37.028 C22.3520024,37.5800028 22.7159988,38.2159964 22.964,38.936 C23.2120012,39.6560036 23.336,40.4239959 23.336,41.24 Z M21.176,41.24 C21.176,40.647997 21.1040007,40.0880026 20.96,39.56 C20.8159993,39.0319974 20.6040014,38.572002 20.324,38.18 C20.0439986,37.787998 19.6880022,37.4800011 19.256,37.256 C18.8239978,37.0319989 18.3200029,36.92 17.744,36.92 C17.1679971,36.92 16.6640022,37.0319989 16.232,37.256 C15.7999978,37.4800011 15.4440014,37.787998 15.164,38.18 C14.8839986,38.572002 14.6720007,39.0319974 14.528,39.56 C14.3839993,40.0880026 14.312,40.647997 14.312,41.24 C14.312,41.848003 14.3839993,42.4119974 14.528,42.932 C14.6720007,43.4520026 14.8839986,43.907998 15.164,44.3 C15.4440014,44.692002 15.7999978,44.9999989 16.232,45.224 C16.6640022,45.4480011 17.1679971,45.56 17.744,45.56 C18.3200029,45.56 18.8239978,45.4480011 19.256,45.224 C19.6880022,44.9999989 20.0439986,44.692002 20.324,44.3 C20.6040014,43.907998 20.8159993,43.4520026 20.96,42.932 C21.1040007,42.4119974 21.176,41.848003 21.176,41.24 Z M26.096,47 L26.096,35.48 L28.16,35.48 L28.16,37.16 C28.5920022,36.551997 29.111997,36.0800017 29.72,35.744 C30.328003,35.4079983 31.031996,35.24 31.832,35.24 C32.5520036,35.24 33.1679974,35.3919985 33.68,35.696 C34.1920026,36.0000015 34.6159983,36.4119974 34.952,36.932 C35.2880017,37.4520026 35.5319992,38.0559966 35.684,38.744 C35.8360008,39.4320034 35.912,40.1599962 35.912,40.928 L35.912,47 L33.752,47 L33.752,41 C33.752,40.407997 33.7040005,39.8680024 33.608,39.38 C33.5119995,38.8919976 33.360001,38.4720018 33.152,38.12 C32.943999,37.7679982 32.6720017,37.492001 32.336,37.292 C31.9999983,37.091999 31.5920024,36.992 31.112,36.992 C30.4719968,36.992 29.9080024,37.1599983 29.42,37.496 C28.9319976,37.8320017 28.5440014,38.1839982 28.256,38.552 L28.256,47 L26.096,47 Z M39.392,47 L39.392,35.48 L41.552,35.48 L41.552,47 L39.392,47 Z M39.104,32.072 C39.104,31.7039982 39.2279988,31.3840014 39.476,31.112 C39.7240012,30.8399986 40.0559979,30.704 40.472,30.704 C40.8880021,30.704 41.2199988,30.8399986 41.468,31.112 C41.7160012,31.3840014 41.84,31.7039982 41.84,32.072 C41.84,32.4400018 41.7160012,32.7599986 41.468,33.032 C41.2199988,33.3040014 40.8880021,33.44 40.472,33.44 C40.0559979,33.44 39.7240012,33.3040014 39.476,33.032 C39.2279988,32.7599986 39.104,32.4400018 39.104,32.072 Z M49.592,35.24 C50.3280037,35.24 50.9719972,35.3599988 51.524,35.6 C52.0760028,35.8400012 52.5399981,36.1679979 52.916,36.584 C53.2920019,37.0000021 53.5719991,37.4919972 53.756,38.06 C53.9400009,38.6280028 54.032,39.2399967 54.032,39.896 C54.032,40.5520033 53.9520008,41.1999968 53.792,41.84 L46.52,41.84 C46.5360001,42.4000028 46.6159993,42.9039978 46.76,43.352 C46.9040007,43.8000022 47.1239985,44.1879984 47.42,44.516 C47.7160015,44.8440016 48.0999976,45.0959991 48.572,45.272 C49.0440024,45.4480009 49.6159966,45.536 50.288,45.536 C50.9120031,45.536 51.4999972,45.4720006 52.052,45.344 C52.6040028,45.2159994 53.1119977,45.056001 53.576,44.864 L53.864,46.472 C53.3519974,46.7120012 52.7560034,46.8999993 52.076,47.036 C51.3959966,47.1720007 50.6960036,47.24 49.976,47.24 C49.0159952,47.24 48.1800036,47.0840016 47.468,46.772 C46.7559964,46.4599984 46.1680023,46.0360027 45.704,45.5 C45.2399977,44.9639973 44.8920012,44.3360036 44.66,43.616 C44.4279988,42.8959964 44.312,42.1200042 44.312,41.288 C44.312,40.4559958 44.4319988,39.6720037 44.672,38.936 C44.9120012,38.1999963 45.2599977,37.5560028 45.716,37.004 C46.1720023,36.4519972 46.7279967,36.0200016 47.384,35.708 C48.0400033,35.3959984 48.7759959,35.24 49.592,35.24 Z M49.52,36.848 C49.0559977,36.848 48.6480018,36.9359991 48.296,37.112 C47.9439982,37.2880009 47.6400013,37.5279985 47.384,37.832 C47.1279987,38.1360015 46.9280007,38.491998 46.784,38.9 C46.6399993,39.308002 46.5520002,39.7359978 46.52,40.184 L51.944,40.184 C51.9920002,39.7359978 51.9840003,39.308002 51.92,38.9 C51.8559997,38.491998 51.728001,38.1360015 51.536,37.832 C51.343999,37.5279985 51.0800017,37.2880009 50.744,37.112 C50.4079983,36.9359991 50.0000024,36.848 49.52,36.848 Z M64.16,43.712 C64.16,44.2560027 64.0440012,44.7439978 63.812,45.176 C63.5799988,45.6080022 63.260002,45.9759985 62.852,46.28 C62.443998,46.5840015 61.9600028,46.8199992 61.4,46.988 C60.8399972,47.1560008 60.2320033,47.24 59.576,47.24 C59.2879986,47.24 58.9840016,47.2240002 58.664,47.192 C58.3439984,47.1599998 58.0240016,47.1120003 57.704,47.048 C57.3839984,46.9839997 57.0760015,46.9080004 56.78,46.82 C56.4839985,46.7319996 56.232001,46.6400005 56.024,46.544 L56.384,44.84 C56.8000021,45.0160009 57.2759973,45.1759993 57.812,45.32 C58.3480027,45.4640007 58.9439967,45.536 59.6,45.536 C60.2880034,45.536 60.8679976,45.4120012 61.34,45.164 C61.8120024,44.9159988 62.048,44.5200027 62.048,43.976 C62.048,43.7199987 61.9840006,43.492001 61.856,43.292 C61.7279994,43.091999 61.560001,42.9160008 61.352,42.764 C61.143999,42.6119992 60.9000014,42.4720006 60.62,42.344 C60.3399986,42.2159994 60.0480015,42.0880006 59.744,41.96 C59.3279979,41.7999992 58.9120021,41.620001 58.496,41.42 C58.0799979,41.219999 57.7000017,40.9800014 57.356,40.7 C57.0119983,40.4199986 56.7320011,40.0960018 56.516,39.728 C56.2999989,39.3599982 56.192,38.9200026 56.192,38.408 C56.192,37.8479972 56.3079988,37.368002 56.54,36.968 C56.7720012,36.567998 57.0759981,36.2400013 57.452,35.984 C57.8280019,35.7279987 58.2639975,35.5400006 58.76,35.42 C59.2560025,35.2999994 59.7679974,35.24 60.296,35.24 C60.904003,35.24 61.4959971,35.3079993 62.072,35.444 C62.6480029,35.5800007 63.1679977,35.7679988 63.632,36.008 L63.272,37.64 C62.8079977,37.4159989 62.3240025,37.2440006 61.82,37.124 C61.3159975,37.0039994 60.8080026,36.944 60.296,36.944 C59.7359972,36.944 59.2640019,37.039999 58.88,37.232 C58.4959981,37.424001 58.304,37.7759974 58.304,38.288 C58.304,38.5280012 58.3719993,38.7319992 58.508,38.9 C58.6440007,39.0680008 58.8199989,39.2199993 59.036,39.356 C59.2520011,39.4920007 59.4879987,39.6159994 59.744,39.728 C60.0000013,39.8400006 60.2399989,39.9519994 60.464,40.064 C60.672001,40.1600005 60.9839979,40.2959991 61.4,40.472 C61.8160021,40.6480009 62.227998,40.8759986 62.636,41.156 C63.044002,41.4360014 63.3999985,41.7839979 63.704,42.2 C64.0080015,42.6160021 64.16,43.119997 64.16,43.712 Z" id="Blazefield-Ponies" fill="#1A1918"></path>
    </g>
</svg>